# xmcd CD database file
#
# Track frame offsets:
#	150
#	10407
#	31206
#	46254
#	62649
#	83278
#	103753
#	122681
#	139970
#	159503
#	178247
#	190715
#
# Disc length: 2836 seconds
#
# Revision: 0
# Processed by: cddbd v1.5.1PL2 Copyright (c) Steve Scherf et al.
# Submitted via: CDex 1.51
#
DISCID=960b120c
DTITLE=般若 - 内部告発
DYEAR=1900
DGENRE=Hip-Hop
TTITLE0=23時59分
TTITLE1=理由
TTITLE2=その男、東京につき
TTITLE3=みんなのうた
TTITLE4=履歴書
TTITLE5=向こう側
TTITLE6=猿
TTITLE7=スーパースター
TTITLE8=ペットショップ
TTITLE9=内部告発
TTITLE10=時効
TTITLE11=オレ達の大和
EXTD=
EXTT0=
EXTT1=
EXTT2=
EXTT3=
EXTT4=
EXTT5=
EXTT6=
EXTT7=
EXTT8=
EXTT9=
EXTT10=
EXTT11=
PLAYORDER=
